# xmcd CD database file
#
# Track frame offsets:
#	150
#	10862
#	20853
#	30023
#	40385
#	56436
#	66636
#	75407
#	85879
#	96095
#
# Disc length: 1441 seconds
#
# Revision: 1
# Processed by: cddbd v1.5.1PL0 Copyright (c) Steve Scherf et al.
# Submitted via: CDex 1.51
#
DISCID=73059f0a
DTITLE=Billy Cooper - Steel Guitar
DYEAR=2003
DGENRE=Country
TTITLE0=Healing Hands Of Time
TTITLE1=I'll Be There
TTITLE2=Lonely Street
TTITLE3=I Don't Believe I'll Fall In Love Today
TTITLE4=Farewell Party
TTITLE5=Sonora Trail
TTITLE6=Crazy Arms
TTITLE7=Born TO Lose
TTITLE8=Please Don't Play A-11
TTITLE9=Juat A Minor Thing
EXTD=YEAR: 2003
EXTT0=
EXTT1=
EXTT2=
EXTT3=
EXTT4=
EXTT5=
EXTT6=
EXTT7=
EXTT8=
EXTT9=
PLAYORDER=
